<mxfile host="app.diagrams.net" modified="2023-07-22T15:51:09.646Z" agent="Mozilla/5.0 (Windows NT 10.0; Win64; x64) AppleWebKit/537.36 (KHTML, like Gecko) Chrome/114.0.0.0 Safari/537.36 Edg/114.0.1823.82" etag="Hiw4Fk8YucjaRhk1b0KU" version="21.6.5" type="device">
  <diagram name="Pagina-1" id="OVuAvK3fIeXXkWuqaJL1">
    <mxGraphModel dx="1050" dy="541" grid="1" gridSize="10" guides="1" tooltips="1" connect="1" arrows="1" fold="1" page="1" pageScale="1" pageWidth="827" pageHeight="1169" math="0" shadow="0">
      <root>
        <mxCell id="0" />
        <mxCell id="1" parent="0" />
        <mxCell id="MEL6epNngCZNI99RMXUX-3" value="" style="edgeStyle=orthogonalEdgeStyle;rounded=0;orthogonalLoop=1;jettySize=auto;html=1;" edge="1" parent="1" source="MEL6epNngCZNI99RMXUX-1" target="MEL6epNngCZNI99RMXUX-2">
          <mxGeometry relative="1" as="geometry" />
        </mxCell>
        <mxCell id="MEL6epNngCZNI99RMXUX-1" value="UserState" style="rounded=1;whiteSpace=wrap;html=1;" vertex="1" parent="1">
          <mxGeometry x="354" y="60" width="120" height="60" as="geometry" />
        </mxCell>
        <mxCell id="MEL6epNngCZNI99RMXUX-5" value="" style="edgeStyle=orthogonalEdgeStyle;rounded=0;orthogonalLoop=1;jettySize=auto;html=1;" edge="1" parent="1" source="MEL6epNngCZNI99RMXUX-2" target="MEL6epNngCZNI99RMXUX-4">
          <mxGeometry relative="1" as="geometry" />
        </mxCell>
        <mxCell id="MEL6epNngCZNI99RMXUX-2" value="ProblemSessionState" style="whiteSpace=wrap;html=1;rounded=1;strokeColor=#66CC00;" vertex="1" parent="1">
          <mxGeometry x="354" y="200" width="120" height="60" as="geometry" />
        </mxCell>
        <mxCell id="MEL6epNngCZNI99RMXUX-4" value="UnavailState" style="whiteSpace=wrap;html=1;rounded=1;strokeColor=#00FFFF;" vertex="1" parent="1">
          <mxGeometry x="354" y="340" width="120" height="60" as="geometry" />
        </mxCell>
        <mxCell id="MEL6epNngCZNI99RMXUX-6" value="&lt;span style=&quot;background-color: initial;&quot;&gt;userID&lt;/span&gt;&lt;br&gt;&lt;span style=&quot;background-color: initial;&quot;&gt;problemSessionID&lt;/span&gt;&lt;br&gt;&lt;span style=&quot;background-color: rgb(102, 204, 0);&quot;&gt;problemSessionList&lt;/span&gt;" style="rounded=0;whiteSpace=wrap;html=1;fontSize=9;align=left;spacingLeft=7;" vertex="1" parent="1">
          <mxGeometry x="460" y="90" width="100" height="50" as="geometry" />
        </mxCell>
        <mxCell id="MEL6epNngCZNI99RMXUX-7" value="&lt;span style=&quot;background-color: initial;&quot;&gt;School&lt;/span&gt;&lt;br&gt;&lt;span style=&quot;background-color: initial;&quot;&gt;[...]&lt;/span&gt;&lt;br&gt;&lt;span style=&quot;background-color: rgb(0, 255, 255);&quot;&gt;unavailList&lt;/span&gt;" style="rounded=0;whiteSpace=wrap;html=1;fontSize=9;align=left;spacingLeft=7;" vertex="1" parent="1">
          <mxGeometry x="450" y="240" width="100" height="50" as="geometry" />
        </mxCell>
      </root>
    </mxGraphModel>
  </diagram>
</mxfile>
